# xmcd CD database file
#
# Track frame offsets:
#	150
#	18893
#	43883
#	61543
#	78825
#	97233
#	116153
#	138173
#	162085
#
# Disc length: 2438 seconds
#
# Revision: 0
# Processed by: cddbd v1.5.2PL0 Copyright (c) Steve Scherf et al.
# Submitted via: CDex 1.70beta2
#
DISCID=6a098409
DTITLE=Dr. John - In a Sentimental Mood
DYEAR=1989
DGENRE=Blues
TTITLE0=Makin' Whoopee!
TTITLE1=Candy
TTITLE2=Accentuate the Positive
TTITLE3=My Buddy
TTITLE4=In a Sentimental Mood
TTITLE5=Black Night
TTITLE6=Don't Let the Sun Catch You Cryin'
TTITLE7=Love For Sale
TTITLE8=More than You Know
EXTD=YEAR: 1989
EXTT0=
EXTT1=
EXTT2=
EXTT3=
EXTT4=
EXTT5=
EXTT6=
EXTT7=
EXTT8=
PLAYORDER=
